<svg id="visual" viewBox="0 0 900 600" width="900" height="600" xmlns="http://www.w3.org/2000/svg" xmlns:xlink="http://www.w3.org/1999/xlink" version="1.1"><rect x="0" y="0" width="900" height="600" fill="#ffffff"></rect><defs><linearGradient id="grad1_0" x1="33.3%" y1="0%" x2="100%" y2="100%"><stop offset="20%" stop-color="#ffffff" stop-opacity="1"></stop><stop offset="80%" stop-color="#ffffff" stop-opacity="1"></stop></linearGradient></defs><defs><linearGradient id="grad2_0" x1="0%" y1="0%" x2="66.7%" y2="100%"><stop offset="20%" stop-color="#ffffff" stop-opacity="1"></stop><stop offset="80%" stop-color="#ffffff" stop-opacity="1"></stop></linearGradient></defs><g transform="translate(900, 0)"><path d="M0 351.5C-22 319.9 -44.1 288.2 -76.9 286.9C-109.7 285.5 -153.3 314.4 -175.8 304.4C-198.3 294.5 -199.7 245.6 -219.9 219.9C-240.1 194.2 -279.2 191.7 -299.6 173C-320.1 154.3 -321.9 119.3 -327.4 87.7C-333 56.2 -342.3 28.1 -351.5 0L0 0Z" fill="#e1e3e9"></path></g><g transform="translate(0, 600)"><path d="M0 -351.5C30.9 -346.2 61.7 -340.8 87 -324.6C112.2 -308.3 131.8 -281.3 151 -261.5C170.2 -241.8 188.9 -229.3 218.5 -218.5C248.1 -207.7 288.4 -198.6 304.4 -175.8C320.4 -152.9 312.1 -116.2 315.9 -84.6C319.6 -53 335.6 -26.5 351.5 0L0 0Z" fill="#e1e3e9"></path></g></svg>