<?xml version="1.0" encoding="iso-8859-1"?>
<!-- Generator: Adobe Illustrator 19.0.0, SVG Export Plug-In . SVG Version: 6.00 Build 0)  -->
<svg version="1.1" id="Layer_1" xmlns="http://www.w3.org/2000/svg" xmlns:xlink="http://www.w3.org/1999/xlink" x="0px" y="0px"
	 viewBox="0 0 512 512" style="enable-background:new 0 0 512 512;" xml:space="preserve">
<path style="fill:#A9D0D3;" d="M284.151,227.823c-42.342,0-76.8-34.449-76.8-76.8c0-40.371,31.334-73.574,70.98-76.561
	c7.049-35.558,38.17-61.662,74.94-61.662c36.753,0,67.857,26.078,74.94,61.67c39.637,2.987,70.98,36.181,70.98,76.561
	c0,42.351-34.458,76.8-76.8,76.8h-138.24V227.823z"/>
<circle style="fill:#FEDEA1;" cx="89.6" cy="204.8" r="25.6"/>
<circle style="fill:#FF877F;" cx="422.4" cy="320" r="25.6"/>
<path style="fill:#6FB0B6;" d="M89.6,499.174c-42.342,0-76.8-34.449-76.8-76.8c0-40.371,31.334-73.574,70.98-76.561
	c7.057-35.567,38.178-61.67,74.948-61.67c36.753,0,67.857,26.078,74.94,61.67c39.637,2.987,70.98,36.181,70.98,76.561
	c0,42.351-34.458,76.8-76.8,76.8H89.6z"/>
<path style="fill:#573A32;" d="M438.477,62.899C426.923,25.702,392.371,0,353.271,0s-73.651,25.702-85.197,62.899
	c-24.755,4.489-45.568,19.371-58.718,39.501H128c-28.228,0-51.2,22.972-51.2,51.2v15.147C61.918,174.037,51.2,188.1,51.2,204.8
	s10.718,30.763,25.6,36.053v85.248c-1.135,2.697-2.398,5.325-3.277,8.158C31.377,341.897,0,379.204,0,422.374
	C0,471.799,40.201,512,89.6,512h138.249c45.013,0,82.014-33.485,88.303-76.8H384c28.228,0,51.2-22.972,51.2-51.2v-27.947
	c14.882-5.291,25.6-19.354,25.6-36.053s-10.718-30.763-25.6-36.053V239.36c43.307-6.281,76.8-43.29,76.8-88.329
	C512,107.853,480.623,70.554,438.477,62.899z M89.6,192c7.057,0,12.8,5.743,12.8,12.8c0,7.057-5.743,12.8-12.8,12.8
	c-7.057,0-12.8-5.743-12.8-12.8C76.8,197.743,82.543,192,89.6,192z M227.849,486.374H89.6c-35.302,0-64-28.698-64-64
	c0-35.277,28.698-63.974,64-63.974l5.35,0.077l0.529-4.548c3.575-32.503,30.771-56.977,63.249-56.977s59.674,24.474,63.249,56.977
	l1.297,4.471h4.574c35.302,0,64,28.698,64,63.974C291.849,457.677,263.151,486.374,227.849,486.374z M409.6,384
	c0,14.14-11.46,25.6-25.6,25.6h-67.703c-5.495-37.547-34.466-68.471-72.371-75.349c-11.554-37.197-46.097-62.899-85.197-62.899
	c-21.129,0-40.772,7.68-56.329,20.446v-50.944C117.282,235.563,128,221.5,128,204.8s-10.718-30.763-25.6-36.053V153.6
	c0-14.14,11.46-25.6,25.6-25.6h69.948c-2.005,7.415-3.396,15.061-3.396,23.023c0,49.425,40.201,89.626,89.6,89.626H409.6v43.298
	C394.718,289.237,384,303.3,384,320s10.718,30.763,25.6,36.053V384z M422.4,332.8c-7.057,0-12.8-5.743-12.8-12.8
	c0-7.057,5.743-12.8,12.8-12.8s12.8,5.743,12.8,12.8C435.2,327.057,429.457,332.8,422.4,332.8z M422.4,215.023H284.151
	c-35.302,0-64-28.698-64-64c0-35.277,28.698-63.974,64-63.974l5.35,0.077l0.529-4.548c3.567-32.503,30.771-56.977,63.241-56.977
	s59.674,24.474,63.249,56.977l1.297,4.471h4.582c35.302,0,64,28.698,64,63.974C486.4,186.325,457.702,215.023,422.4,215.023z"/>
<g>
</g>
<g>
</g>
<g>
</g>
<g>
</g>
<g>
</g>
<g>
</g>
<g>
</g>
<g>
</g>
<g>
</g>
<g>
</g>
<g>
</g>
<g>
</g>
<g>
</g>
<g>
</g>
<g>
</g>
</svg>
