<svg id="visual" viewBox="0 0 900 600" width="900" height="600" xmlns="http://www.w3.org/2000/svg" xmlns:xlink="http://www.w3.org/1999/xlink" version="1.1"><rect x="0" y="0" width="900" height="600" fill="#232127"></rect><path d="M0 226L18.8 240.5C37.7 255 75.3 284 112.8 296C150.3 308 187.7 303 225.2 291C262.7 279 300.3 260 337.8 273.2C375.3 286.3 412.7 331.7 450.2 347.3C487.7 363 525.3 349 562.8 349.5C600.3 350 637.7 365 675.2 348.3C712.7 331.7 750.3 283.3 787.8 259.5C825.3 235.7 862.7 236.3 881.3 236.7L900 237L900 0L881.3 0C862.7 0 825.3 0 787.8 0C750.3 0 712.7 0 675.2 0C637.7 0 600.3 0 562.8 0C525.3 0 487.7 0 450.2 0C412.7 0 375.3 0 337.8 0C300.3 0 262.7 0 225.2 0C187.7 0 150.3 0 112.8 0C75.3 0 37.7 0 18.8 0L0 0Z" fill="#232127"></path><path d="M0 260L18.8 257.8C37.7 255.7 75.3 251.3 112.8 241.5C150.3 231.7 187.7 216.3 225.2 214C262.7 211.7 300.3 222.3 337.8 239.7C375.3 257 412.7 281 450.2 286.8C487.7 292.7 525.3 280.3 562.8 261.8C600.3 243.3 637.7 218.7 675.2 211.7C712.7 204.7 750.3 215.3 787.8 216C825.3 216.7 862.7 207.3 881.3 202.7L900 198L900 0L881.3 0C862.7 0 825.3 0 787.8 0C750.3 0 712.7 0 675.2 0C637.7 0 600.3 0 562.8 0C525.3 0 487.7 0 450.2 0C412.7 0 375.3 0 337.8 0C300.3 0 262.7 0 225.2 0C187.7 0 150.3 0 112.8 0C75.3 0 37.7 0 18.8 0L0 0Z" fill="#292532"></path><path d="M0 166L18.8 172.2C37.7 178.3 75.3 190.7 112.8 192.7C150.3 194.7 187.7 186.3 225.2 181.3C262.7 176.3 300.3 174.7 337.8 185.7C375.3 196.7 412.7 220.3 450.2 222.5C487.7 224.7 525.3 205.3 562.8 199C600.3 192.7 637.7 199.3 675.2 190.2C712.7 181 750.3 156 787.8 143.3C825.3 130.7 862.7 130.3 881.3 130.2L900 130L900 0L881.3 0C862.7 0 825.3 0 787.8 0C750.3 0 712.7 0 675.2 0C637.7 0 600.3 0 562.8 0C525.3 0 487.7 0 450.2 0C412.7 0 375.3 0 337.8 0C300.3 0 262.7 0 225.2 0C187.7 0 150.3 0 112.8 0C75.3 0 37.7 0 18.8 0L0 0Z" fill="#2f293d"></path><path d="M0 132L18.8 129.7C37.7 127.3 75.3 122.7 112.8 128.2C150.3 133.7 187.7 149.3 225.2 154.2C262.7 159 300.3 153 337.8 146.5C375.3 140 412.7 133 450.2 126.2C487.7 119.3 525.3 112.7 562.8 114.3C600.3 116 637.7 126 675.2 124.7C712.7 123.3 750.3 110.7 787.8 102.3C825.3 94 862.7 90 881.3 88L900 86L900 0L881.3 0C862.7 0 825.3 0 787.8 0C750.3 0 712.7 0 675.2 0C637.7 0 600.3 0 562.8 0C525.3 0 487.7 0 450.2 0C412.7 0 375.3 0 337.8 0C300.3 0 262.7 0 225.2 0C187.7 0 150.3 0 112.8 0C75.3 0 37.7 0 18.8 0L0 0Z" fill="#352d48"></path><path d="M0 112L18.8 101.3C37.7 90.7 75.3 69.3 112.8 60.2C150.3 51 187.7 54 225.2 60.2C262.7 66.3 300.3 75.7 337.8 75.2C375.3 74.7 412.7 64.3 450.2 66.8C487.7 69.3 525.3 84.7 562.8 87.2C600.3 89.7 637.7 79.3 675.2 71.5C712.7 63.7 750.3 58.3 787.8 63.3C825.3 68.3 862.7 83.7 881.3 91.3L900 99L900 0L881.3 0C862.7 0 825.3 0 787.8 0C750.3 0 712.7 0 675.2 0C637.7 0 600.3 0 562.8 0C525.3 0 487.7 0 450.2 0C412.7 0 375.3 0 337.8 0C300.3 0 262.7 0 225.2 0C187.7 0 150.3 0 112.8 0C75.3 0 37.7 0 18.8 0L0 0Z" fill="#3b3054"></path></svg>