<svg id="visual" viewBox="0 0 900 600" width="900" height="600" xmlns="http://www.w3.org/2000/svg" xmlns:xlink="http://www.w3.org/1999/xlink" version="1.1"><rect x="0" y="0" width="900" height="600" fill="#e1e3e9"></rect><path d="M0 462L21.5 435.2C43 408.3 86 354.7 128.8 324.7C171.7 294.7 214.3 288.3 257.2 295.3C300 302.3 343 322.7 385.8 348.7C428.7 374.7 471.3 406.3 514.2 409.2C557 412 600 386 642.8 388.5C685.7 391 728.3 422 771.2 412.3C814 402.7 857 352.3 878.5 327.2L900 302L900 0L878.5 0C857 0 814 0 771.2 0C728.3 0 685.7 0 642.8 0C600 0 557 0 514.2 0C471.3 0 428.7 0 385.8 0C343 0 300 0 257.2 0C214.3 0 171.7 0 128.8 0C86 0 43 0 21.5 0L0 0Z" fill="#e1e3e9"></path><path d="M0 396L21.5 379.2C43 362.3 86 328.7 128.8 301.2C171.7 273.7 214.3 252.3 257.2 273.5C300 294.7 343 358.3 385.8 356.3C428.7 354.3 471.3 286.7 514.2 262C557 237.3 600 255.7 642.8 281.8C685.7 308 728.3 342 771.2 355.5C814 369 857 362 878.5 358.5L900 355L900 0L878.5 0C857 0 814 0 771.2 0C728.3 0 685.7 0 642.8 0C600 0 557 0 514.2 0C471.3 0 428.7 0 385.8 0C343 0 300 0 257.2 0C214.3 0 171.7 0 128.8 0C86 0 43 0 21.5 0L0 0Z" fill="#d1d2d6"></path><path d="M0 227L21.5 225.3C43 223.7 86 220.3 128.8 231.8C171.7 243.3 214.3 269.7 257.2 260.7C300 251.7 343 207.3 385.8 186.7C428.7 166 471.3 169 514.2 189.5C557 210 600 248 642.8 261.8C685.7 275.7 728.3 265.3 771.2 268.8C814 272.3 857 289.7 878.5 298.3L900 307L900 0L878.5 0C857 0 814 0 771.2 0C728.3 0 685.7 0 642.8 0C600 0 557 0 514.2 0C471.3 0 428.7 0 385.8 0C343 0 300 0 257.2 0C214.3 0 171.7 0 128.8 0C86 0 43 0 21.5 0L0 0Z" fill="#c1c1c4"></path><path d="M0 142L21.5 151.8C43 161.7 86 181.3 128.8 176.2C171.7 171 214.3 141 257.2 131.5C300 122 343 133 385.8 148.7C428.7 164.3 471.3 184.7 514.2 192.2C557 199.7 600 194.3 642.8 199.3C685.7 204.3 728.3 219.7 771.2 206.7C814 193.7 857 152.3 878.5 131.7L900 111L900 0L878.5 0C857 0 814 0 771.2 0C728.3 0 685.7 0 642.8 0C600 0 557 0 514.2 0C471.3 0 428.7 0 385.8 0C343 0 300 0 257.2 0C214.3 0 171.7 0 128.8 0C86 0 43 0 21.5 0L0 0Z" fill="#b1b1b2"></path><path d="M0 99L21.5 92C43 85 86 71 128.8 76.3C171.7 81.7 214.3 106.3 257.2 107.8C300 109.3 343 87.7 385.8 82.2C428.7 76.7 471.3 87.3 514.2 97.7C557 108 600 118 642.8 112.3C685.7 106.7 728.3 85.3 771.2 89.5C814 93.7 857 123.3 878.5 138.2L900 153L900 0L878.5 0C857 0 814 0 771.2 0C728.3 0 685.7 0 642.8 0C600 0 557 0 514.2 0C471.3 0 428.7 0 385.8 0C343 0 300 0 257.2 0C214.3 0 171.7 0 128.8 0C86 0 43 0 21.5 0L0 0Z" fill="#a1a1a1"></path></svg>