<svg id="visual" viewBox="0 0 900 600" width="900" height="600" xmlns="http://www.w3.org/2000/svg" xmlns:xlink="http://www.w3.org/1999/xlink" version="1.1"><rect x="0" y="0" width="900" height="600" fill="#ffffff"></rect><path d="M0 429L12.5 438.2C25 447.3 50 465.7 75 444.5C100 423.3 125 362.7 150 343C175 323.3 200 344.7 225 358.2C250 371.7 275 377.3 300 375.3C325 373.3 350 363.7 375 364C400 364.3 425 374.7 450 370.8C475 367 500 349 525 342.2C550 335.3 575 339.7 600 345.2C625 350.7 650 357.3 675 378.8C700 400.3 725 436.7 750 454.3C775 472 800 471 825 450.3C850 429.7 875 389.3 887.5 369.2L900 349L900 601L887.5 601C875 601 850 601 825 601C800 601 775 601 750 601C725 601 700 601 675 601C650 601 625 601 600 601C575 601 550 601 525 601C500 601 475 601 450 601C425 601 400 601 375 601C350 601 325 601 300 601C275 601 250 601 225 601C200 601 175 601 150 601C125 601 100 601 75 601C50 601 25 601 12.5 601L0 601Z" fill="#ffffff"></path><path d="M0 394L12.5 405C25 416 50 438 75 432.2C100 426.3 125 392.7 150 398.7C175 404.7 200 450.3 225 454.5C250 458.7 275 421.3 300 418.7C325 416 350 448 375 444.8C400 441.7 425 403.3 450 384.7C475 366 500 367 525 363.7C550 360.3 575 352.7 600 359.2C625 365.7 650 386.3 675 387C700 387.7 725 368.3 750 369.5C775 370.7 800 392.3 825 416.5C850 440.7 875 467.3 887.5 480.7L900 494L900 601L887.5 601C875 601 850 601 825 601C800 601 775 601 750 601C725 601 700 601 675 601C650 601 625 601 600 601C575 601 550 601 525 601C500 601 475 601 450 601C425 601 400 601 375 601C350 601 325 601 300 601C275 601 250 601 225 601C200 601 175 601 150 601C125 601 100 601 75 601C50 601 25 601 12.5 601L0 601Z" fill="#f9f9fb"></path><path d="M0 497L12.5 479.5C25 462 50 427 75 422.2C100 417.3 125 442.7 150 444.3C175 446 200 424 225 416.5C250 409 275 416 300 424.7C325 433.3 350 443.7 375 459C400 474.3 425 494.7 450 488C475 481.3 500 447.7 525 431.2C550 414.7 575 415.3 600 424.3C625 433.3 650 450.7 675 445.8C700 441 725 414 750 404.7C775 395.3 800 403.7 825 427C850 450.3 875 488.7 887.5 507.8L900 527L900 601L887.5 601C875 601 850 601 825 601C800 601 775 601 750 601C725 601 700 601 675 601C650 601 625 601 600 601C575 601 550 601 525 601C500 601 475 601 450 601C425 601 400 601 375 601C350 601 325 601 300 601C275 601 250 601 225 601C200 601 175 601 150 601C125 601 100 601 75 601C50 601 25 601 12.5 601L0 601Z" fill="#f3f4f6"></path><path d="M0 429L12.5 436.5C25 444 50 459 75 460C100 461 125 448 150 457.3C175 466.7 200 498.3 225 498.3C250 498.3 275 466.7 300 459C325 451.3 350 467.7 375 477.8C400 488 425 492 450 494.2C475 496.3 500 496.7 525 486.2C550 475.7 575 454.3 600 450.8C625 447.3 650 461.7 675 478.5C700 495.3 725 514.7 750 526C775 537.3 800 540.7 825 543.7C850 546.7 875 549.3 887.5 550.7L900 552L900 601L887.5 601C875 601 850 601 825 601C800 601 775 601 750 601C725 601 700 601 675 601C650 601 625 601 600 601C575 601 550 601 525 601C500 601 475 601 450 601C425 601 400 601 375 601C350 601 325 601 300 601C275 601 250 601 225 601C200 601 175 601 150 601C125 601 100 601 75 601C50 601 25 601 12.5 601L0 601Z" fill="#edeef2"></path><path d="M0 512L12.5 511.3C25 510.7 50 509.3 75 511.2C100 513 125 518 150 528.8C175 539.7 200 556.3 225 554.3C250 552.3 275 531.7 300 528.2C325 524.7 350 538.3 375 538.3C400 538.3 425 524.7 450 511.8C475 499 500 487 525 483.5C550 480 575 485 600 492.5C625 500 650 510 675 519.5C700 529 725 538 750 546.8C775 555.7 800 564.3 825 553.3C850 542.3 875 511.7 887.5 496.3L900 481L900 601L887.5 601C875 601 850 601 825 601C800 601 775 601 750 601C725 601 700 601 675 601C650 601 625 601 600 601C575 601 550 601 525 601C500 601 475 601 450 601C425 601 400 601 375 601C350 601 325 601 300 601C275 601 250 601 225 601C200 601 175 601 150 601C125 601 100 601 75 601C50 601 25 601 12.5 601L0 601Z" fill="#e7e9ed"></path><path d="M0 573L12.5 565.5C25 558 50 543 75 547.3C100 551.7 125 575.3 150 581C175 586.7 200 574.3 225 560.8C250 547.3 275 532.7 300 535.5C325 538.3 350 558.7 375 558C400 557.3 425 535.7 450 538.8C475 542 500 570 525 581.2C550 592.3 575 586.7 600 578.5C625 570.3 650 559.7 675 556.7C700 553.7 725 558.3 750 563.8C775 569.3 800 575.7 825 573.5C850 571.3 875 560.7 887.5 555.3L900 550L900 601L887.5 601C875 601 850 601 825 601C800 601 775 601 750 601C725 601 700 601 675 601C650 601 625 601 600 601C575 601 550 601 525 601C500 601 475 601 450 601C425 601 400 601 375 601C350 601 325 601 300 601C275 601 250 601 225 601C200 601 175 601 150 601C125 601 100 601 75 601C50 601 25 601 12.5 601L0 601Z" fill="#e1e3e9"></path></svg>