<svg id="visual" viewBox="0 0 900 600" width="900" height="600" xmlns="http://www.w3.org/2000/svg" xmlns:xlink="http://www.w3.org/1999/xlink" version="1.1"><rect x="0" y="0" width="900" height="600" fill="#e1e3e9"></rect><path d="M0 136L21.5 162.8C43 189.7 86 243.3 128.8 273.3C171.7 303.3 214.3 309.7 257.2 302.7C300 295.7 343 275.3 385.8 249.3C428.7 223.3 471.3 191.7 514.2 188.8C557 186 600 212 642.8 209.5C685.7 207 728.3 176 771.2 185.7C814 195.3 857 245.7 878.5 270.8L900 296L900 601L878.5 601C857 601 814 601 771.2 601C728.3 601 685.7 601 642.8 601C600 601 557 601 514.2 601C471.3 601 428.7 601 385.8 601C343 601 300 601 257.2 601C214.3 601 171.7 601 128.8 601C86 601 43 601 21.5 601L0 601Z" fill="#a1a1a1"></path><path d="M0 202L21.5 218.8C43 235.7 86 269.3 128.8 296.8C171.7 324.3 214.3 345.7 257.2 324.5C300 303.3 343 239.7 385.8 241.7C428.7 243.7 471.3 311.3 514.2 336C557 360.7 600 342.3 642.8 316.2C685.7 290 728.3 256 771.2 242.5C814 229 857 236 878.5 239.5L900 243L900 601L878.5 601C857 601 814 601 771.2 601C728.3 601 685.7 601 642.8 601C600 601 557 601 514.2 601C471.3 601 428.7 601 385.8 601C343 601 300 601 257.2 601C214.3 601 171.7 601 128.8 601C86 601 43 601 21.5 601L0 601Z" fill="#87838d"></path><path d="M0 371L21.5 372.7C43 374.3 86 377.7 128.8 366.2C171.7 354.7 214.3 328.3 257.2 337.3C300 346.3 343 390.7 385.8 411.3C428.7 432 471.3 429 514.2 408.5C557 388 600 350 642.8 336.2C685.7 322.3 728.3 332.7 771.2 329.2C814 325.7 857 308.3 878.5 299.7L900 291L900 601L878.5 601C857 601 814 601 771.2 601C728.3 601 685.7 601 642.8 601C600 601 557 601 514.2 601C471.3 601 428.7 601 385.8 601C343 601 300 601 257.2 601C214.3 601 171.7 601 128.8 601C86 601 43 601 21.5 601L0 601Z" fill="#6d667a"></path><path d="M0 456L21.5 446.2C43 436.3 86 416.7 128.8 421.8C171.7 427 214.3 457 257.2 466.5C300 476 343 465 385.8 449.3C428.7 433.7 471.3 413.3 514.2 405.8C557 398.3 600 403.7 642.8 398.7C685.7 393.7 728.3 378.3 771.2 391.3C814 404.3 857 445.7 878.5 466.3L900 487L900 601L878.5 601C857 601 814 601 771.2 601C728.3 601 685.7 601 642.8 601C600 601 557 601 514.2 601C471.3 601 428.7 601 385.8 601C343 601 300 601 257.2 601C214.3 601 171.7 601 128.8 601C86 601 43 601 21.5 601L0 601Z" fill="#544a67"></path><path d="M0 499L21.5 506C43 513 86 527 128.8 521.7C171.7 516.3 214.3 491.7 257.2 490.2C300 488.7 343 510.3 385.8 515.8C428.7 521.3 471.3 510.7 514.2 500.3C557 490 600 480 642.8 485.7C685.7 491.3 728.3 512.7 771.2 508.5C814 504.3 857 474.7 878.5 459.8L900 445L900 601L878.5 601C857 601 814 601 771.2 601C728.3 601 685.7 601 642.8 601C600 601 557 601 514.2 601C471.3 601 428.7 601 385.8 601C343 601 300 601 257.2 601C214.3 601 171.7 601 128.8 601C86 601 43 601 21.5 601L0 601Z" fill="#3b3054"></path></svg>