<svg id="visual" viewBox="0 0 900 600" width="900" height="600" xmlns="http://www.w3.org/2000/svg" xmlns:xlink="http://www.w3.org/1999/xlink" version="1.1"><rect x="0" y="0" width="900" height="600" fill="#e1e3e9"></rect><path d="M0 147L21.5 137.3C43 127.7 86 108.3 128.8 126.3C171.7 144.3 214.3 199.7 257.2 209.2C300 218.7 343 182.3 385.8 191.7C428.7 201 471.3 256 514.2 283C557 310 600 309 642.8 283C685.7 257 728.3 206 771.2 197.5C814 189 857 223 878.5 240L900 257L900 601L878.5 601C857 601 814 601 771.2 601C728.3 601 685.7 601 642.8 601C600 601 557 601 514.2 601C471.3 601 428.7 601 385.8 601C343 601 300 601 257.2 601C214.3 601 171.7 601 128.8 601C86 601 43 601 21.5 601L0 601Z" fill="#e1e3e9"></path><path d="M0 193L21.5 201.7C43 210.3 86 227.7 128.8 247.7C171.7 267.7 214.3 290.3 257.2 289.7C300 289 343 265 385.8 266.7C428.7 268.3 471.3 295.7 514.2 314.5C557 333.3 600 343.7 642.8 318.5C685.7 293.3 728.3 232.7 771.2 214C814 195.3 857 218.7 878.5 230.3L900 242L900 601L878.5 601C857 601 814 601 771.2 601C728.3 601 685.7 601 642.8 601C600 601 557 601 514.2 601C471.3 601 428.7 601 385.8 601C343 601 300 601 257.2 601C214.3 601 171.7 601 128.8 601C86 601 43 601 21.5 601L0 601Z" fill="#b1b3c3"></path><path d="M0 341L21.5 338.7C43 336.3 86 331.7 128.8 341.8C171.7 352 214.3 377 257.2 378C300 379 343 356 385.8 343.7C428.7 331.3 471.3 329.7 514.2 327.7C557 325.7 600 323.3 642.8 327.7C685.7 332 728.3 343 771.2 344.5C814 346 857 338 878.5 334L900 330L900 601L878.5 601C857 601 814 601 771.2 601C728.3 601 685.7 601 642.8 601C600 601 557 601 514.2 601C471.3 601 428.7 601 385.8 601C343 601 300 601 257.2 601C214.3 601 171.7 601 128.8 601C86 601 43 601 21.5 601L0 601Z" fill="#85859e"></path><path d="M0 406L21.5 400.2C43 394.3 86 382.7 128.8 386.2C171.7 389.7 214.3 408.3 257.2 412.2C300 416 343 405 385.8 401.8C428.7 398.7 471.3 403.3 514.2 404.5C557 405.7 600 403.3 642.8 401.8C685.7 400.3 728.3 399.7 771.2 411.2C814 422.7 857 446.3 878.5 458.2L900 470L900 601L878.5 601C857 601 814 601 771.2 601C728.3 601 685.7 601 642.8 601C600 601 557 601 514.2 601C471.3 601 428.7 601 385.8 601C343 601 300 601 257.2 601C214.3 601 171.7 601 128.8 601C86 601 43 601 21.5 601L0 601Z" fill="#5e5979"></path><path d="M0 543L21.5 545.5C43 548 86 553 128.8 537.8C171.7 522.7 214.3 487.3 257.2 486.5C300 485.7 343 519.3 385.8 533.7C428.7 548 471.3 543 514.2 530.2C557 517.3 600 496.7 642.8 491C685.7 485.3 728.3 494.7 771.2 504.8C814 515 857 526 878.5 531.5L900 537L900 601L878.5 601C857 601 814 601 771.2 601C728.3 601 685.7 601 642.8 601C600 601 557 601 514.2 601C471.3 601 428.7 601 385.8 601C343 601 300 601 257.2 601C214.3 601 171.7 601 128.8 601C86 601 43 601 21.5 601L0 601Z" fill="#3b3054"></path></svg>