<svg id="visual" viewBox="0 0 900 600" width="900" height="600" xmlns="http://www.w3.org/2000/svg" xmlns:xlink="http://www.w3.org/1999/xlink" version="1.1"><rect x="0" y="0" width="900" height="600" fill="#3b3054"></rect><path d="M0 381L21.5 390.5C43 400 86 419 128.8 423.8C171.7 428.7 214.3 419.3 257.2 405.7C300 392 343 374 385.8 364.7C428.7 355.3 471.3 354.7 514.2 364.7C557 374.7 600 395.3 642.8 397C685.7 398.7 728.3 381.3 771.2 374.2C814 367 857 370 878.5 371.5L900 373L900 601L878.5 601C857 601 814 601 771.2 601C728.3 601 685.7 601 642.8 601C600 601 557 601 514.2 601C471.3 601 428.7 601 385.8 601C343 601 300 601 257.2 601C214.3 601 171.7 601 128.8 601C86 601 43 601 21.5 601L0 601Z" fill="#3b3054"></path><path d="M0 473L21.5 472.5C43 472 86 471 128.8 469.8C171.7 468.7 214.3 467.3 257.2 460.8C300 454.3 343 442.7 385.8 441.7C428.7 440.7 471.3 450.3 514.2 454.7C557 459 600 458 642.8 447.5C685.7 437 728.3 417 771.2 413.3C814 409.7 857 422.3 878.5 428.7L900 435L900 601L878.5 601C857 601 814 601 771.2 601C728.3 601 685.7 601 642.8 601C600 601 557 601 514.2 601C471.3 601 428.7 601 385.8 601C343 601 300 601 257.2 601C214.3 601 171.7 601 128.8 601C86 601 43 601 21.5 601L0 601Z" fill="#352d48"></path><path d="M0 484L21.5 481.8C43 479.7 86 475.3 128.8 476.5C171.7 477.7 214.3 484.3 257.2 482.5C300 480.7 343 470.3 385.8 471.7C428.7 473 471.3 486 514.2 488.3C557 490.7 600 482.3 642.8 482.7C685.7 483 728.3 492 771.2 496.2C814 500.3 857 499.7 878.5 499.3L900 499L900 601L878.5 601C857 601 814 601 771.2 601C728.3 601 685.7 601 642.8 601C600 601 557 601 514.2 601C471.3 601 428.7 601 385.8 601C343 601 300 601 257.2 601C214.3 601 171.7 601 128.8 601C86 601 43 601 21.5 601L0 601Z" fill="#2f293d"></path><path d="M0 541L21.5 538.2C43 535.3 86 529.7 128.8 523.7C171.7 517.7 214.3 511.3 257.2 511C300 510.7 343 516.3 385.8 512.8C428.7 509.3 471.3 496.7 514.2 495.5C557 494.3 600 504.7 642.8 505.5C685.7 506.3 728.3 497.7 771.2 499.8C814 502 857 515 878.5 521.5L900 528L900 601L878.5 601C857 601 814 601 771.2 601C728.3 601 685.7 601 642.8 601C600 601 557 601 514.2 601C471.3 601 428.7 601 385.8 601C343 601 300 601 257.2 601C214.3 601 171.7 601 128.8 601C86 601 43 601 21.5 601L0 601Z" fill="#292532"></path><path d="M0 561L21.5 558.5C43 556 86 551 128.8 546.2C171.7 541.3 214.3 536.7 257.2 540.8C300 545 343 558 385.8 562.7C428.7 567.3 471.3 563.7 514.2 559.5C557 555.3 600 550.7 642.8 552C685.7 553.3 728.3 560.7 771.2 560.5C814 560.3 857 552.7 878.5 548.8L900 545L900 601L878.5 601C857 601 814 601 771.2 601C728.3 601 685.7 601 642.8 601C600 601 557 601 514.2 601C471.3 601 428.7 601 385.8 601C343 601 300 601 257.2 601C214.3 601 171.7 601 128.8 601C86 601 43 601 21.5 601L0 601Z" fill="#232127"></path></svg>